<?xml version="1.0" encoding="UTF-8"?>
<svg id="Layer_2" data-name="Layer 2" xmlns="http://www.w3.org/2000/svg" xmlns:xlink="http://www.w3.org/1999/xlink" viewBox="120 20 650 200">
  <defs>
    <style>
      .cls-1 {
        fill: url(#linear-gradient-12);
      }

      .cls-1, .cls-2, .cls-3, .cls-4, .cls-5, .cls-6, .cls-7, .cls-8, .cls-9, .cls-10, .cls-11, .cls-12, .cls-13, .cls-14, .cls-15, .cls-16, .cls-17 {
        stroke-width: 0px;
      }

      .cls-2 {
        fill: url(#linear-gradient);
      }

      .cls-3 {
        fill: url(#linear-gradient-6);
      }

      .cls-4 {
        fill: url(#linear-gradient-11);
      }

      .cls-5 {
        fill: url(#linear-gradient-5);
      }

      .cls-6 {
        fill: #60f61b;
      }

      .cls-6, .cls-10 {
        fill-rule: evenodd;
      }

      .cls-7 {
        fill: url(#linear-gradient-13);
      }

      .cls-8 {
        fill: url(#linear-gradient-14);
      }

      .cls-9 {
        fill: url(#linear-gradient-2);
      }

      .cls-10, .cls-14 {
        fill: #21093d;
      }

      .cls-11 {
        fill: url(#linear-gradient-7);
      }

      .cls-12 {
        fill: url(#linear-gradient-3);
      }

      .cls-13 {
        fill: url(#linear-gradient-9);
      }

      .cls-15 {
        fill: url(#linear-gradient-8);
      }

      .cls-16 {
        fill: url(#linear-gradient-10);
      }

      .cls-17 {
        fill: url(#linear-gradient-4);
      }
    </style>
    <linearGradient id="linear-gradient" x1="0" y1="347.15" x2="53.05" y2="347.15" gradientUnits="userSpaceOnUse">
      <stop offset="0" stop-color="#662d91"/>
      <stop offset=".86" stop-color="#662d91"/>
      <stop offset="1" stop-color="#662d91"/>
    </linearGradient>
    <linearGradient id="linear-gradient-2" x1="67.19" x2="120.24" xlink:href="#linear-gradient"/>
    <linearGradient id="linear-gradient-3" x1="135.07" y1="347.58" x2="192.14" y2="347.58" xlink:href="#linear-gradient"/>
    <linearGradient id="linear-gradient-4" x1="201.38" x2="247.26" xlink:href="#linear-gradient"/>
    <linearGradient id="linear-gradient-5" x1="281.44" y1="347.05" x2="339.21" y2="347.05" xlink:href="#linear-gradient"/>
    <linearGradient id="linear-gradient-6" x1="348.23" x2="401.28" xlink:href="#linear-gradient"/>
    <linearGradient id="linear-gradient-7" x1="416.11" y1="346.91" x2="464.06" y2="346.91" xlink:href="#linear-gradient"/>
    <linearGradient id="linear-gradient-8" x1="466.7" y1="347.49" x2="520.05" y2="347.49" xlink:href="#linear-gradient"/>
    <linearGradient id="linear-gradient-9" x1="557.66" y1="347.15" x2="628.78" y2="347.15" xlink:href="#linear-gradient"/>
    <linearGradient id="linear-gradient-10" x1="635.45" y1="347.29" x2="701.45" y2="347.29" xlink:href="#linear-gradient"/>
    <linearGradient id="linear-gradient-11" x1="703.63" y1="347.49" x2="756.98" y2="347.49" xlink:href="#linear-gradient"/>
    <linearGradient id="linear-gradient-12" x1="765.71" y1="347.58" x2="822.79" y2="347.58" xlink:href="#linear-gradient"/>
    <linearGradient id="linear-gradient-13" x1="832.32" y1="347.15" x2="844.01" y2="347.15" xlink:href="#linear-gradient"/>
    <linearGradient id="linear-gradient-14" x1="854.52" y1="347.15" x2="910.61" y2="347.15" xlink:href="#linear-gradient"/>
  </defs>
  <g id="Layer_1-2" data-name="Layer 1">
    <g>
      <path class="cls-6" d="m521.37,101.29L579.09,1.32h-46.11c-11.42,0-21.98,6.09-27.69,15.99l-8.19,14.18c-4.96,8.59-4.96,19.16,0,27.75l24.28,42.06Z"/>
      <path class="cls-10" d="m654.69,38.66c0-19.47-15.57-37.33-37.33-37.33l-76.84,133.09h0s-16.14,27.96-16.14,27.96h0s-36.48,63.19-36.48,63.19h64.57l4.2-7.26,16.14-27.96h0s76.84-133.1,76.84-133.1c3.46-6,5.05-12.37,5.05-18.58Z"/>
      <path class="cls-10" d="m715.02,1.32l-125.68,217.68-3.15,5.46-.63,1.1h64.57l97.18-168.32c3.46-6,5.05-12.37,5.05-18.58,0-19.47-15.57-37.33-37.33-37.33Z"/>
      <path class="cls-10" d="m472.94,74.41l-42.2,73.11-13.59,23.52h-.01s-.01,0-.01,0l-49.6-85.92c.04.15.08.3.12.45l-12.18-21.08h0s-.01-.03-.01-.04c-.26-.56-.54-1.11-.83-1.67-.01-.03-.03-.06-.05-.09-.01-.03-.03-.06-.04-.09-1.96-3.91-4.12-7.66-6.52-11.29-.01-.01-.03-.04-.04-.05-.35-.53-.68-1.06-1.05-1.58-.01,0-.01-.01-.01-.01-.52-.76-1.06-1.52-1.6-2.27-10.48-14.58-24.33-26.57-40.4-34.84h0s-.05-.03-.05-.03c-7.6-3.91-15.69-6.99-24.16-9.11-8.74-2.2-17.9-3.36-27.3-3.38l.68,1.18h-.03s-.7-1.21-.7-1.21h-.25c-3.29,0-6.55.15-9.77.43l-.88-.06.06.14c-57.61,5.36-102.87,53.97-102.87,112.95,0,62.54,50.89,113.44,113.45,113.44,2.44,0,4.87-.08,7.27-.25l6.29.03,32.28.05h.01l53.13.09-32.31-55.98-13.31-.03h-7.41s-.01,0-.01,0l-37.48-.06-17.12-.03c-27.84-4.2-49.25-28.28-49.25-57.26,0-31.94,25.98-57.92,57.92-57.92,8.32,0,16.22,1.78,23.38,4.95l6.69,3.48c2.79,1.7,5.43,3.65,7.88,5.79l15.36,21.43.63,1.09h0s21.08,36.51,21.08,36.51l1.55,2.69,10.21,17.71,10.09,17.46,1.74,3.01.74,1.29,1.37,2.36,3.25,5.64h.01l17.85,30.93,5.81,10.07,3.99,6.91h64.61l-.12-.19h.39l32.05-55.52,23.56-40.8-32.29-55.93Z"/>
    </g>
  </g>
</svg>